<svg width="104" height="13" viewBox="0 0 104 13" fill="none" xmlns="http://www.w3.org/2000/svg">
<path d="M0 12.0001V0.640059H7.632V2.57606H2.208V5.50406H6.72V7.29606H2.208V12.0001H0Z" fill="white"/>
<path d="M13.9875 12.0001V0.640059H16.1955V10.0641H21.9875V12.0001H13.9875Z" fill="white"/>
<path d="M32.7292 12.0801C31.8972 12.0801 31.1399 11.9201 30.4573 11.6001C29.7852 11.2801 29.2039 10.8481 28.7133 10.3041C28.2333 9.74939 27.8599 9.13073 27.5933 8.44806C27.3266 7.75473 27.1933 7.04539 27.1933 6.32006C27.1933 5.56273 27.3319 4.84273 27.6093 4.16006C27.8866 3.46673 28.2759 2.85339 28.7773 2.32006C29.2786 1.77606 29.8652 1.34939 30.5373 1.04006C31.2199 0.720058 31.9666 0.560059 32.7773 0.560059C33.5986 0.560059 34.3452 0.725392 35.0173 1.05606C35.6999 1.38673 36.2813 1.82939 36.7613 2.38406C37.2519 2.93873 37.6252 3.56273 37.8812 4.25606C38.1479 4.93873 38.2812 5.63739 38.2812 6.35206C38.2812 7.09872 38.1426 7.81873 37.8652 8.51206C37.5879 9.19473 37.1986 9.80806 36.6973 10.3521C36.2066 10.8854 35.6199 11.3067 34.9372 11.6161C34.2652 11.9254 33.5292 12.0801 32.7292 12.0801ZM29.4333 6.32006C29.4333 6.98139 29.5613 7.60006 29.8173 8.17606C30.0839 8.75206 30.4626 9.22139 30.9532 9.58406C31.4546 9.94673 32.0519 10.1281 32.7453 10.1281C33.4599 10.1281 34.0626 9.94139 34.5533 9.56806C35.0439 9.19473 35.4172 8.71473 35.6732 8.12806C35.9292 7.54139 36.0573 6.93873 36.0573 6.32006C36.0573 5.65873 35.9239 5.04006 35.6572 4.46406C35.3906 3.88806 35.0066 3.42406 34.5052 3.07206C34.0146 2.70939 33.4279 2.52806 32.7453 2.52806C32.0306 2.52806 31.4279 2.71473 30.9373 3.08806C30.4466 3.46139 30.0733 3.94139 29.8173 4.52806C29.5613 5.10406 29.4333 5.70139 29.4333 6.32006Z" fill="white"/>
<path d="M48.2099 0.672059H50.2579L51.5539 4.43206L52.8659 0.672059H54.8979L52.9459 5.84006L54.3859 9.45606L57.6019 0.640059H60.0019L55.4579 12.0001H53.5539L51.5539 7.23206L49.5699 12.0001H47.6659L43.1379 0.640059H45.5059L48.7379 9.45606L50.1459 5.84006L48.2099 0.672059Z" fill="white"/>
<path d="M73.8536 10.0641V12.0001H65.9656V0.640059H73.7096V2.57606H68.1736V5.31206H72.9576V7.10406H68.1736V10.0641H73.8536Z" fill="white"/>
<path d="M80.375 12.0001V0.640059H85.399C85.9217 0.640059 86.4017 0.746725 86.839 0.960058C87.287 1.17339 87.671 1.46139 87.991 1.82406C88.3217 2.18673 88.5723 2.59206 88.743 3.04006C88.9243 3.48806 89.015 3.94673 89.015 4.41606C89.015 5.14139 88.8283 5.80806 88.455 6.41606C88.0923 7.02406 87.5963 7.46139 86.967 7.72806L89.559 12.0001H87.127L84.791 8.19206H82.583V12.0001H80.375ZM82.583 6.25606H85.351C85.767 6.25606 86.1083 6.08006 86.375 5.72806C86.6523 5.36539 86.791 4.92806 86.791 4.41606C86.791 4.06406 86.7163 3.74939 86.567 3.47206C86.4177 3.19473 86.2257 2.97606 85.991 2.81606C85.767 2.65606 85.5217 2.57606 85.255 2.57606H82.583V6.25606Z" fill="white"/>
<path d="M102.584 3.61606C102.488 3.50939 102.285 3.37073 101.976 3.20006C101.666 3.01873 101.293 2.85873 100.856 2.72006C100.429 2.57073 99.9863 2.49606 99.5276 2.49606C98.3223 2.49606 97.7196 2.92273 97.7196 3.77606C97.7196 4.08539 97.8156 4.33073 98.0076 4.51206C98.1996 4.69339 98.4876 4.84806 98.8716 4.97606C99.2556 5.10406 99.7356 5.24273 100.312 5.39206C101.058 5.58406 101.704 5.80806 102.248 6.06406C102.802 6.32006 103.224 6.66139 103.512 7.08806C103.81 7.50406 103.96 8.05873 103.96 8.75206C103.96 9.56273 103.762 10.2187 103.368 10.7201C102.984 11.2107 102.472 11.5681 101.832 11.7921C101.192 12.0161 100.498 12.1281 99.7516 12.1281C98.8983 12.1281 98.0503 12.0001 97.2076 11.7441C96.3756 11.4774 95.6343 11.1147 94.9836 10.6561L95.9596 8.75206C96.0556 8.84806 96.2263 8.97606 96.4716 9.13606C96.717 9.28539 97.0156 9.44006 97.3676 9.60006C97.7196 9.74939 98.1036 9.87739 98.5196 9.98406C98.9356 10.0907 99.357 10.1441 99.7836 10.1441C101 10.1441 101.608 9.75473 101.608 8.97606C101.608 8.64539 101.485 8.37873 101.24 8.17606C100.994 7.97339 100.648 7.80273 100.2 7.66406C99.7623 7.52539 99.2503 7.37073 98.6636 7.20006C97.9383 6.99739 97.3356 6.77339 96.8556 6.52806C96.3863 6.27206 96.0343 5.95739 95.7996 5.58406C95.565 5.20006 95.4476 4.71473 95.4476 4.12806C95.4476 3.34939 95.629 2.69873 95.9916 2.17606C96.365 1.64273 96.8663 1.24273 97.4956 0.976059C98.125 0.698725 98.8236 0.560059 99.5916 0.560059C100.381 0.560059 101.117 0.688059 101.8 0.944058C102.482 1.20006 103.069 1.49339 103.56 1.82406L102.584 3.61606Z" fill="white"/>
</svg>
