<svg width="34" height="38" viewBox="0 0 34 38" fill="none" xmlns="http://www.w3.org/2000/svg">
<path d="M11.25 37.5C12.6307 37.5 13.75 36.1009 13.75 34.375C13.75 32.6491 12.6307 31.25 11.25 31.25C9.86929 31.25 8.75 32.6491 8.75 34.375C8.75 36.1009 9.86929 37.5 11.25 37.5Z" fill="black"/>
<path d="M28.75 37.5C30.1307 37.5 31.25 36.1009 31.25 34.375C31.25 32.6491 30.1307 31.25 28.75 31.25C27.3693 31.25 26.25 32.6491 26.25 34.375C26.25 36.1009 27.3693 37.5 28.75 37.5Z" fill="black"/>
<path d="M33.1875 5.54492C33.0119 5.27642 32.7906 5.06016 32.5398 4.91185C32.289 4.76354 32.015 4.6869 31.7375 4.6875H7.96016L7.48125 1.29102C7.43018 0.929227 7.27877 0.601499 7.0536 0.365398C6.82843 0.129297 6.5439 -7.71889e-05 6.25 3.45509e-08H1.25C0.918479 3.45509e-08 0.600537 0.16462 0.366116 0.457646C0.131696 0.750672 0 1.1481 0 1.5625C0 1.9769 0.131696 2.37433 0.366116 2.66735C0.600537 2.96038 0.918479 3.125 1.25 3.125H5.20156L8.76875 28.3965C8.81982 28.7583 8.97123 29.086 9.1964 29.3221C9.42157 29.5582 9.7061 29.6876 10 29.6875H30C30.3315 29.6875 30.6495 29.5229 30.8839 29.2299C31.1183 28.9368 31.25 28.5394 31.25 28.125C31.25 27.7106 31.1183 27.3132 30.8839 27.0201C30.6495 26.7271 30.3315 26.5625 30 26.5625H11.0484L10.6078 23.4375H29.4875C29.921 23.4368 30.341 23.2489 30.6764 22.9057C31.0118 22.5624 31.242 22.0848 31.3281 21.5537L33.5781 7.49121C33.6323 7.15088 33.6254 6.79975 33.5579 6.46317C33.4903 6.12659 33.3638 5.81296 33.1875 5.54492Z" fill="black"/>
</svg>
