<svg width="105" height="13" viewBox="0 0 105 13" fill="none" xmlns="http://www.w3.org/2000/svg">
<path d="M0.184082 12V0.639997H7.81608V2.576H2.39208V5.504H6.90408V7.296H2.39208V12H0.184082Z" fill="black"/>
<path d="M14.1716 12V0.639997H16.3796V10.064H22.1716V12H14.1716Z" fill="black"/>
<path d="M32.9133 12.08C32.0813 12.08 31.324 11.92 30.6413 11.6C29.9693 11.28 29.388 10.848 28.8973 10.304C28.4173 9.74933 28.044 9.13066 27.7773 8.448C27.5107 7.75466 27.3773 7.04533 27.3773 6.32C27.3773 5.56266 27.516 4.84266 27.7933 4.16C28.0707 3.46666 28.46 2.85333 28.9613 2.32C29.4627 1.776 30.0493 1.34933 30.7213 1.04C31.404 0.719997 32.1507 0.559998 32.9613 0.559998C33.7827 0.559998 34.5293 0.725331 35.2013 1.056C35.884 1.38666 36.4653 1.82933 36.9453 2.384C37.436 2.93866 37.8093 3.56266 38.0653 4.256C38.332 4.93866 38.4653 5.63733 38.4653 6.352C38.4653 7.09866 38.3267 7.81866 38.0493 8.512C37.772 9.19466 37.3827 9.808 36.8813 10.352C36.3907 10.8853 35.804 11.3067 35.1213 11.616C34.4493 11.9253 33.7133 12.08 32.9133 12.08ZM29.6173 6.32C29.6173 6.98133 29.7453 7.6 30.0013 8.176C30.268 8.752 30.6467 9.22133 31.1373 9.584C31.6387 9.94666 32.236 10.128 32.9293 10.128C33.644 10.128 34.2467 9.94133 34.7373 9.568C35.228 9.19466 35.6013 8.71467 35.8573 8.128C36.1133 7.54133 36.2413 6.93866 36.2413 6.32C36.2413 5.65866 36.108 5.04 35.8413 4.464C35.5747 3.888 35.1907 3.424 34.6893 3.072C34.1987 2.70933 33.612 2.528 32.9293 2.528C32.2147 2.528 31.612 2.71466 31.1213 3.088C30.6307 3.46133 30.2573 3.94133 30.0013 4.528C29.7453 5.104 29.6173 5.70133 29.6173 6.32Z" fill="black"/>
<path d="M48.394 0.671998H50.442L51.738 4.432L53.05 0.671998H55.082L53.13 5.84L54.57 9.456L57.786 0.639997H60.186L55.642 12H53.738L51.738 7.232L49.754 12H47.85L43.322 0.639997H45.69L48.922 9.456L50.33 5.84L48.394 0.671998Z" fill="black"/>
<path d="M74.0377 10.064V12H66.1497V0.639997H73.8937V2.576H68.3577V5.312H73.1417V7.104H68.3577V10.064H74.0377Z" fill="black"/>
<path d="M80.5591 12V0.639997H85.5831C86.1058 0.639997 86.5858 0.746664 87.0231 0.959997C87.4711 1.17333 87.8551 1.46133 88.1751 1.824C88.5058 2.18666 88.7564 2.592 88.9271 3.04C89.1084 3.488 89.1991 3.94666 89.1991 4.416C89.1991 5.14133 89.0124 5.808 88.6391 6.416C88.2764 7.024 87.7804 7.46133 87.1511 7.728L89.7431 12H87.3111L84.9751 8.192H82.7671V12H80.5591ZM82.7671 6.256H85.5351C85.9511 6.256 86.2924 6.08 86.5591 5.728C86.8364 5.36533 86.9751 4.928 86.9751 4.416C86.9751 4.064 86.9004 3.74933 86.7511 3.472C86.6018 3.19466 86.4098 2.976 86.1751 2.816C85.9511 2.656 85.7058 2.576 85.4391 2.576H82.7671V6.256Z" fill="black"/>
<path d="M102.768 3.616C102.672 3.50933 102.469 3.37066 102.16 3.2C101.85 3.01866 101.477 2.85866 101.04 2.72C100.613 2.57066 100.17 2.496 99.7117 2.496C98.5064 2.496 97.9037 2.92266 97.9037 3.776C97.9037 4.08533 97.9997 4.33066 98.1917 4.512C98.3837 4.69333 98.6717 4.848 99.0557 4.976C99.4397 5.104 99.9197 5.24266 100.496 5.392C101.242 5.584 101.888 5.808 102.432 6.064C102.986 6.32 103.408 6.66133 103.696 7.088C103.994 7.504 104.144 8.05866 104.144 8.752C104.144 9.56266 103.946 10.2187 103.552 10.72C103.168 11.2107 102.656 11.568 102.016 11.792C101.376 12.016 100.682 12.128 99.9357 12.128C99.0824 12.128 98.2344 12 97.3917 11.744C96.5597 11.4773 95.8184 11.1147 95.1677 10.656L96.1437 8.752C96.2397 8.848 96.4104 8.976 96.6557 9.136C96.901 9.28533 97.1997 9.44 97.5517 9.6C97.9037 9.74933 98.2877 9.87733 98.7037 9.984C99.1197 10.0907 99.541 10.144 99.9677 10.144C101.184 10.144 101.792 9.75466 101.792 8.976C101.792 8.64533 101.669 8.37866 101.424 8.176C101.178 7.97333 100.832 7.80266 100.384 7.664C99.9464 7.52533 99.4344 7.37066 98.8477 7.2C98.1224 6.99733 97.5197 6.77333 97.0397 6.528C96.5704 6.272 96.2184 5.95733 95.9837 5.584C95.749 5.2 95.6317 4.71466 95.6317 4.128C95.6317 3.34933 95.813 2.69866 96.1757 2.176C96.549 1.64266 97.0504 1.24266 97.6797 0.975998C98.309 0.698664 99.0077 0.559998 99.7757 0.559998C100.565 0.559998 101.301 0.687997 101.984 0.943997C102.666 1.2 103.253 1.49333 103.744 1.824L102.768 3.616Z" fill="black"/>
</svg>
