<svg width="24" height="24" viewBox="0 0 24 24" fill="none" xmlns="http://www.w3.org/2000/svg">
<path d="M15.744 13.53C15.4518 13.2138 15.1235 12.9329 14.766 12.693C16.2077 11.5785 17.2182 9.99829 17.625 8.222C17.6556 8.09346 17.6603 7.96013 17.6391 7.82973C17.6178 7.69933 17.5709 7.57444 17.5011 7.46227C17.4313 7.3501 17.3399 7.25287 17.2323 7.17622C17.1247 7.09956 17.003 7.04499 16.8741 7.01565C16.7453 6.98632 16.6119 6.98281 16.4817 7.00532C16.3516 7.02783 16.2271 7.07592 16.1156 7.1468C16.0041 7.21769 15.9078 7.30997 15.8321 7.41831C15.7565 7.52665 15.7031 7.6489 15.675 7.778C15.4857 8.60905 15.1175 9.38881 14.5959 10.0629C14.0743 10.737 13.4119 11.2892 12.655 11.681V8.002C12.6487 7.92855 12.6339 7.85607 12.611 7.786C12.6042 7.72811 12.5925 7.6709 12.576 7.615C12.5334 7.52366 12.4771 7.43935 12.409 7.365C12.391 7.345 12.382 7.317 12.363 7.297C12.2898 7.2294 12.2069 7.17311 12.117 7.13C12.091 7.116 12.072 7.093 12.045 7.082C11.9685 7.0564 11.8893 7.03995 11.809 7.033C11.7593 7.01852 11.7084 7.00815 11.657 7.002L11.003 7H11C10.7657 6.99834 10.5384 7.07941 10.358 7.22893C10.1776 7.37844 10.0558 7.58682 10.0139 7.81734C9.97212 8.04787 10.013 8.28576 10.1293 8.48911C10.2457 8.69247 10.4301 8.84824 10.65 8.929V13.819C9.0653 12.1741 8.01591 10.0879 7.64 7.835C7.59571 7.5735 7.44935 7.3403 7.23312 7.18671C7.01689 7.03311 6.7485 6.97171 6.487 7.016C6.2255 7.06029 5.9923 7.20665 5.83871 7.42288C5.68511 7.63911 5.62371 7.9075 5.668 8.169C6.25233 11.6517 8.19437 14.7604 11.068 16.813C11.1091 16.8374 11.1518 16.8588 11.196 16.877C11.2308 16.8973 11.2669 16.9153 11.304 16.931C11.4154 16.9756 11.534 16.9997 11.654 17.002C11.8012 17.0002 11.9461 16.9653 12.078 16.9C12.088 16.895 12.099 16.898 12.109 16.893C12.1974 16.8467 12.2783 16.7874 12.349 16.717C12.364 16.703 12.373 16.687 12.387 16.672C12.4515 16.6012 12.5054 16.5213 12.547 16.435C12.5608 16.4066 12.5731 16.3776 12.584 16.348C12.6279 16.2378 12.6516 16.1206 12.654 16.002V13.876C13.2741 14.0577 13.8328 14.4052 14.27 14.881L15.917 16.678C16.0963 16.8735 16.3459 16.9897 16.6109 17.0011C16.8759 17.0126 17.1345 16.9183 17.33 16.739C17.5255 16.5597 17.6417 16.3101 17.6531 16.0451C17.6646 15.7801 17.5703 15.5215 17.391 15.326L15.744 13.53ZM15.073 1H8.937C2.78 1 1 2.778 1 8.927V15.063C1 21.22 2.778 23 8.927 23H15.063C21.22 23 23 21.222 23 15.073V8.937C23 2.78 21.222 1 15.073 1ZM21 15.073C21 20.113 20.112 21 15.062 21H8.928C3.887 21 3 20.112 3 15.062V8.928C3 3.887 3.888 3 8.938 3H15.073C20.113 3 21 3.888 21 8.938V15.073Z" fill="white"/>
</svg>
